<?xml version="1.0" encoding="UTF-8"?>
<svg version="1.1" xmlns="http://www.w3.org/2000/svg" width="32" height="32">
<path d="M0 0 C10.56 0 21.12 0 32 0 C32 10.56 32 21.12 32 32 C21.44 32 10.88 32 0 32 C0 21.44 0 10.88 0 0 Z " fill="#FFFFFF" transform="translate(0,0)"/>
<path d="M0 0 C2.51074157 1.00169482 3.79282698 1.61740099 5.26171875 3.90234375 C5.15698076 8.47053165 3.00517726 10.58462676 -0.09179688 13.60742188 C-0.65576172 14.13787109 -1.21972656 14.66832031 -1.80078125 15.21484375 C-2.36861328 15.76462891 -2.93644531 16.31441406 -3.52148438 16.88085938 C-4.9181905 18.2306174 -6.32706962 19.567759 -7.73828125 20.90234375 C-11.06588048 19.35039621 -13.2240861 17.59612426 -15.73828125 14.90234375 C-14.11678121 10.92919454 -11.38245252 8.10933937 -8.42578125 5.08984375 C-7.95205078 4.57486328 -7.47832031 4.05988281 -6.99023438 3.52929688 C-3.41727063 -0.12187128 -3.41727063 -0.12187128 0 0 Z " fill="#00A2E8" transform="translate(24.73828125,6.09765625)"/>
<path d="M0 0 C3.09323239 1.13167039 4.59989894 2.29553704 6.5625 4.9375 C6.5625 7.84401604 5.54440854 8.9605822 3.75 11.25 C1.5625 12.9375 1.5625 12.9375 -0.4375 12.9375 C-3.09447192 11.60901404 -4.64959225 10.321377 -6.4375 7.9375 C-6.36653989 5.02813544 -5.79387616 3.47206424 -4.1875 1.0625 C-2.4375 -0.0625 -2.4375 -0.0625 0 0 Z " fill="#FFB2CB" transform="translate(8.4375,6.0625)"/>
</svg>
